<svg width="48" height="48" viewBox="0 0 48 48" fill="none" xmlns="http://www.w3.org/2000/svg">
<path d="M48 24C48 37.2548 37.2548 48 24 48C10.7452 48 0 37.2548 0 24C0 10.7452 10.7452 0 24 0C37.2548 0 48 10.7452 48 24Z" fill="#6D5FFF"/>
<path d="M32.2697 13.2H15.7303C14.3356 13.2 13.2 14.304 13.2 15.672V31.896C13.2 33.264 14.3356 34.368 15.7303 34.368H29.7271L29.0729 32.1479L30.6528 33.5759L32.1463 34.9199L34.8 37.2V15.672C34.8 14.304 33.6645 13.2 32.2697 13.2ZM27.5054 28.872C27.5054 28.872 27.061 28.3559 26.6908 27.9C28.3077 27.456 28.9248 26.472 28.9248 26.472C28.4188 26.796 27.9374 27.0239 27.5054 27.1799C26.8882 27.4319 26.2958 27.6 25.7157 27.696C24.5308 27.912 23.4446 27.852 22.5189 27.684C21.8153 27.552 21.2105 27.3599 20.7045 27.1679C20.4206 27.0599 20.112 26.9279 19.8034 26.7599C19.7664 26.7359 19.7294 26.7239 19.6924 26.6999C19.6677 26.6879 19.6553 26.6759 19.643 26.6639C19.4208 26.5439 19.2974 26.46 19.2974 26.46C19.2974 26.46 19.8898 27.4199 21.4574 27.8759C21.0871 28.3319 20.6304 28.872 20.6304 28.872C17.9026 28.788 16.8658 27.0479 16.8658 27.0479C16.8658 23.184 18.6432 20.052 18.6432 20.052C20.4206 18.756 22.1116 18.792 22.1116 18.792L22.235 18.936C20.0133 19.56 18.9888 20.508 18.9888 20.508C18.9888 20.508 19.2604 20.364 19.717 20.16C21.0377 19.596 22.0869 19.44 22.5189 19.404C22.5929 19.392 22.6546 19.38 22.7287 19.38C23.4816 19.284 24.3333 19.26 25.222 19.356C26.3945 19.488 27.6535 19.824 28.9372 20.508C28.9372 20.508 27.9621 19.608 25.8638 18.984L26.0366 18.792C26.0366 18.792 27.7276 18.756 29.5049 20.052C29.5049 20.052 31.2823 23.184 31.2823 27.0479C31.2823 27.0479 30.2332 28.788 27.5054 28.872ZM21.766 23.268C21.0624 23.268 20.507 23.8679 20.507 24.5999C20.507 25.3319 21.0748 25.9319 21.766 25.9319C22.4695 25.9319 23.0249 25.3319 23.0249 24.5999C23.0373 23.8679 22.4695 23.268 21.766 23.268ZM26.2711 23.268C25.5676 23.268 25.0121 23.8679 25.0121 24.5999C25.0121 25.3319 25.5799 25.9319 26.2711 25.9319C26.9746 25.9319 27.5301 25.3319 27.5301 24.5999C27.5301 23.8679 26.9746 23.268 26.2711 23.268Z" fill="#FDC100"/>
<circle cx="24" cy="24" r="23.5" stroke="#FDC100"/>
</svg>
