<svg width="48" height="50" viewBox="0 0 48 50" fill="none" xmlns="http://www.w3.org/2000/svg">
<path d="M24.0002 0.980347C10.747 0.980347 0 11.7813 0 25.1055C0 35.7646 6.87679 44.8077 16.4128 47.9977C17.6123 48.221 18.0526 47.4744 18.0526 46.8372C18.0526 46.2619 18.0304 44.3614 18.02 42.3456C11.3431 43.8049 9.93424 39.4991 9.93424 39.4991C8.84249 36.7106 7.26945 35.9691 7.26945 35.9691C5.09191 34.4718 7.43359 34.5025 7.43359 34.5025C9.84363 34.6727 11.1126 36.9886 11.1126 36.9886C13.2532 40.6768 16.7272 39.6106 18.0967 38.9941C18.3121 37.4349 18.9341 36.3706 19.6205 35.7682C14.2897 35.1581 8.6859 33.0895 8.6859 23.8454C8.6859 21.2115 9.62345 19.0594 11.1587 17.3699C10.9095 16.7623 10.088 14.3085 11.3912 10.9855C11.3912 10.9855 13.4066 10.3371 17.993 13.4584C19.9074 12.9239 21.9606 12.6558 24.0002 12.6466C26.0398 12.6558 28.0946 12.9239 30.0126 13.4584C34.5934 10.3371 36.606 10.9855 36.606 10.9855C37.9124 14.3085 37.0905 16.7623 36.8413 17.3699C38.3801 19.0594 39.3113 21.2115 39.3113 23.8454C39.3113 33.1115 33.6968 35.1517 28.3525 35.749C29.2133 36.4976 29.9804 37.9658 29.9804 40.2166C29.9804 43.4446 29.9526 46.0425 29.9526 46.8372C29.9526 47.4792 30.3846 48.2314 31.6011 47.9945C41.132 44.8009 48 35.761 48 25.1055C48 11.7813 37.2546 0.980347 24.0002 0.980347" fill="#FDC100"/>
<path d="M9.16085 35.4531C9.10809 35.5718 8.92085 35.6074 8.75027 35.5259C8.57652 35.448 8.47893 35.2862 8.53526 35.1672C8.58683 35.0449 8.77447 35.0109 8.94782 35.0928C9.12197 35.1707 9.22115 35.3341 9.16085 35.4531" fill="#FDC100"/>
<path d="M10.1312 36.5323C10.0169 36.638 9.79358 36.5889 9.64205 36.422C9.48535 36.2554 9.456 36.0327 9.57183 35.9256C9.68965 35.8199 9.90624 35.8694 10.0633 36.0359C10.22 36.2044 10.2506 36.4255 10.1312 36.5323" fill="#FDC100"/>
<path d="M11.0757 37.908C10.9289 38.0097 10.6889 37.9144 10.5405 37.7019C10.3938 37.4895 10.3938 37.2348 10.5437 37.1327C10.6925 37.0307 10.9289 37.1224 11.0792 37.3333C11.2256 37.5493 11.2256 37.804 11.0757 37.908" fill="#FDC100"/>
<path d="M12.3697 39.2371C12.2384 39.3815 11.9587 39.3427 11.754 39.1457C11.5446 38.9531 11.4863 38.6798 11.618 38.5354C11.7509 38.3906 12.0321 38.4314 12.2384 38.6268C12.4463 38.819 12.5097 39.0943 12.3697 39.2371" fill="#FDC100"/>
<path d="M14.1548 40.0089C14.0969 40.196 13.8276 40.2811 13.5562 40.2016C13.2853 40.1197 13.108 39.9005 13.1627 39.7114C13.219 39.5232 13.4896 39.4346 13.7629 39.5196C14.0334 39.6011 14.2112 39.8186 14.1548 40.0089" fill="#FDC100"/>
<path d="M16.1153 40.1521C16.122 40.3491 15.892 40.5125 15.6071 40.516C15.3207 40.5223 15.089 40.3629 15.0859 40.1691C15.0859 39.9701 15.3108 39.8084 15.5972 39.8036C15.882 39.7981 16.1153 39.9563 16.1153 40.1521" fill="#FDC100"/>
<path d="M17.9397 39.8423C17.9738 40.0346 17.7759 40.232 17.493 40.2846C17.2149 40.3352 16.9575 40.2165 16.9222 40.0259C16.8877 39.8289 17.0892 39.6315 17.3669 39.5805C17.6501 39.5314 17.9036 39.6469 17.9397 39.8423" fill="#FDC100"/>
<path d="M47.5 25C47.5 38.5504 36.9597 49.5 24 49.5C11.0403 49.5 0.5 38.5504 0.5 25C0.5 11.4496 11.0403 0.5 24 0.5C36.9597 0.5 47.5 11.4496 47.5 25Z" stroke="#6D5FFF"/>
</svg>
